<svg version="1.2" xmlns="http://www.w3.org/2000/svg" viewBox="0 0 306 102" width="306" height="102">
	<title>logo-svg</title>
	<defs>
		<linearGradient id="g1" x2="1" gradientUnits="userSpaceOnUse" gradientTransform="matrix(80,0,0,78.491,3,23)">
			<stop offset="0" stop-color="#ef4136"/>
			<stop offset="1" stop-color="#fbb040"/>
		</linearGradient>
	</defs>
	<style>
		.s0 { fill: url(#g1) } 
		.s1 { fill: #000000 } 
	</style>
	<g id="SvgjsG10990">
		<path id="path6" fill-rule="evenodd" class="s0" d="m57.9 29.8q1.5-0.8 3-1.1c2.6-0.5 5.2 0.1 7.4 1.8 3.9 3.1 5.1 8.4 3.4 12.9 4.1 0.8 7.3 4.8 7.3 9.4 0 1.6-0.4 3-0.9 4.3 4.7 3.6 6.3 10.5 3.5 16.2-0.7 1.5-1.7 2.8-2.8 3.9 1.6 3 1.8 6.8 0 10.1-2.2 4-6.8 5.7-10.8 4.2q0 0.3-0.1 0.6c-1.1 4.8-5.6 7.8-10.1 6.5q-0.6-0.2-1.2-0.5c-1.3 2.1-3.5 3.4-6 3.4-3.9 0-7-3.4-7.2-7.5q0-0.1 0-0.1 0 0 0 0 0-0.1 0-0.1 0 0 0 0v-0.2q0 0 0 0 0 0 0 0 0 0 0 0 0 0 0 0 0 0 0 0v-12.7q0 0 0 0 0-0.1 0-0.1 0 0 0 0 0 0 0 0c0-2.8 1.1-5.3 2.8-7-1.7-1.8-2.7-4.2-2.7-6.8q0 0 0 0 0 0 0 0 0 0 0 0 0 0 0 0-0.1-0.1-0.1-0.1 0 0 0 0 0-0.1 0-0.1 0 0 0 0v-0.2q0 0 0 0 0 0 0 0 0 0 0 0 0 0 0 0 0 0 0 0l0.1-17.9q0 0 0 0 0 0 0-0.1 0 0 0 0 0 0 0 0c0-2.5 0.9-4.7 2.3-6.3-1.4-1.7-2.2-3.8-2.3-6.1q0 0 0 0 0 0 0 0 0 0 0 0 0 0 0 0 0 0 0-0.1 0 0 0 0 0 0 0-0.1 0 0 0 0v-5q0-0.1 0-0.1 0 0 0 0 0 0 0 0 0 0 0 0 0-0.1 0-0.1v-0.1q0 0 0 0 0 0 0 0 0 0 0-0.1 0 0 0 0c0.1-4.2 3.3-7.6 7.3-7.6 3.7 0 6.6 3 7.1 6.8zm-16.1 16.4q-0.7 0-1.5 0.1-0.7 0.1-1.4 0.3-0.8 0.1-1.5 0.3-0.7 0.3-1.4 0.6c-2 0.8-3.7 2-5.2 3.5-1.5 1.5-2.6 3.3-3.4 5.2-0.8 2-1.2 4.1-1.2 6.2 0 2.1 0.4 4.2 1.2 6.1q0.9 2.1 2.4 3.9 1.5 1.8 3.4 3.1 1.9 1.3 4.1 2 2.2 0.8 4.5 0.8v23.2q-0.8 0-1.7-0.1-0.9 0-1.8-0.1-0.9-0.1-1.8-0.2-0.9-0.1-1.7-0.3 0.2-0.7 0.4-1.4 0.1-0.7 0.1-1.5 0-0.7-0.2-1.4-0.1-0.7-0.4-1.4-0.6-1.4-1.7-2.5-1.1-1.1-2.5-1.7-1.4-0.5-2.9-0.5-1.6 0-3 0.6-0.6 0.3-1.2 0.7-0.7 0.4-1.2 0.9-0.5 0.5-0.9 1.1-0.4 0.6-0.7 1.3-1.6-1.1-3.1-2.3-1.5-1.2-2.9-2.6-1.4-1.3-2.6-2.8-1.3-1.5-2.3-3.1 0-0.1 0-0.1 0.1 0 0.1 0 0 0 0.1 0 0 0 0.1 0 1.4-0.6 2.4-1.7 1.1-1.1 1.7-2.5 0.6-1.4 0.6-2.9 0-1.6-0.6-3-0.6-1.4-1.7-2.5-1.1-1.1-2.5-1.6-1.4-0.6-3-0.6-1.5 0-2.9 0.6 0 0-0.1 0 0 0.1 0 0.1 0 0-0.1 0 0 0 0 0-0.4-1.9-0.6-3.8-0.2-2-0.2-3.9 0-2 0.2-3.9 0.2-1.9 0.6-3.9 0.6 0.3 1.3 0.4 0.7 0.1 1.4 0.1 0.7-0.1 1.4-0.2 0.7-0.2 1.3-0.4 1.4-0.6 2.5-1.7 1.1-1.1 1.6-2.5 0.6-1.4 0.6-2.9 0-1.6-0.6-3-0.3-0.6-0.6-1.2-0.4-0.6-0.9-1.1-0.4-0.5-1-0.9-0.5-0.4-1.2-0.7 1.1-1.6 2.3-3 1.2-1.5 2.6-2.9 1.3-1.3 2.8-2.5 1.4-1.2 3-2.3 0 0 0 0.1 0.1 0 0.1 0 0 0.1 0 0.1 0 0 0 0.1 0.6 1.4 1.7 2.4 1.1 1.1 2.5 1.7 1.4 0.6 2.9 0.6 1.5-0.1 2.9-0.6 1.5-0.6 2.5-1.7 1.1-1.1 1.7-2.5 0.6-1.4 0.6-2.9-0.1-1.6-0.6-3h-0.1q0 0 0-0.1 0 0 0 0 0 0 0-0.1 0 0-0.1 0 1-0.2 1.9-0.3 0.9-0.2 1.8-0.3 1-0.1 1.9-0.1 0.9-0.1 1.8-0.1c0 0 0 23.2 0 23.2zm3.8-15.4v0.5 4.4q0 0 0 0 0 0 0 0 0 0 0 0 0 0 0 0 0 0 0 0 0 0 0 0 0 0.1 0 0.1 0 0 0 0c-0.1 4.2 3 7.5 6.7 7.6 3.6 0 6.7-3.2 6.8-7.4 0-0.3 0.1-0.6 0.3-0.8 0.2-0.2 0.5-0.3 0.7-0.3 0.3 0 0.6 0.1 0.8 0.3 0.2 0.2 0.3 0.5 0.3 0.8-0.1 2-0.7 3.9-1.7 5.4 1.8 1.8 2.7 4.1 2.8 6.5q0.3 0 0.7 0c2.2-0.1 4.4-1.3 5.9-3.5 2.5-3.9 1.7-9.4-1.8-12.2-3.6-2.8-8.3-2-10.9 2-0.1 0.2-0.4 0.4-0.7 0.4-0.2 0.1-0.5 0-0.7-0.1-0.3-0.2-0.4-0.4-0.5-0.7 0-0.3 0-0.5 0.2-0.8q0.6-1 1.5-1.8 0 0 0-0.1 0 0 0-0.1-0.1 0-0.1-0.1 0 0 0 0c0-3.3-2.3-5.8-5.1-5.8-2.8 0-5.2 2.5-5.2 5.7zm6.6 14.7c-1.8-0.1-3.5-0.7-5-1.8-1 1.3-1.7 3.1-1.7 5.1q0 0 0 0 0 0 0 0 0 0 0 0 0 0 0 0v9 8.9c0 2.3 0.9 4.4 2.4 5.8 1-0.7 2.2-1.1 3.4-1.2-0.1-1.5 0.3-3.1 1.2-4.4q0.1-0.1 0.2-0.1 0.1-0.1 0.2-0.2 0.1 0 0.2-0.1 0.1 0 0.3 0 0.3 0 0.5 0.1 0.3 0.2 0.4 0.4 0.1 0.3 0.1 0.6 0 0.3-0.2 0.5c-1.4 2-1 4.9 0.8 6.4q0.5 0.3 0.9 0.5c0.3 0.2 0.5 0.4 0.6 0.6 0.1 0.3 0.1 0.6-0.1 0.8-0.1 0.3-0.3 0.5-0.5 0.6-0.3 0.1-0.6 0.1-0.8-0.1q-0.8-0.3-1.4-0.8c-0.9-0.8-1.6-1.7-2-2.8-3.6 0.3-6.4 3.7-6.2 7.8q0 0.1 0 0.1 0 0 0 0 0 0 0 0 0 0 0 0.1v12.3q0 0 0 0c0 3.3 2.3 5.8 5.1 5.8q0.3 0 0.6 0c2.5-0.3 4.6-2.7 4.6-5.8q0 0 0 0 0 0 0 0 0 0 0 0 0 0 0 0 0.1-0.5 0.4-0.7 0.3-0.3 0.7-0.3 0.4 0 0.7 0.3 0.3 0.3 0.3 0.7 0 1.4-0.4 2.7 0.4 0.2 0.9 0.3 0.3 0.1 0.6 0.2 0.6 0.1 1.2 0 0.3 0 0.6 0c2.4-0.4 4.5-2.3 5.1-5.2 0.9-3.7-1.2-7.5-4.5-8.4q0 0 0 0 0 0 0 0 0 0 0 0 0 0 0 0-0.6 1.2-1.7 2.1-0.6 0.5-1.3 0.9c-0.3 0.1-0.6 0.1-0.8 0-0.3-0.1-0.5-0.3-0.6-0.5-0.2-0.3-0.2-0.6-0.1-0.8 0.2-0.3 0.4-0.5 0.6-0.6q0.5-0.2 0.9-0.6c1.8-1.4 2.2-4.4 0.8-6.4q0 0 0 0-0.1-0.1-0.1-0.1 0-0.1 0-0.1 0-0.1-0.1-0.1 0 0 0 0 0 0 0-0.1 0 0 0 0 0 0 0 0 0-0.2 0.1-0.4 0-0.3 0.2-0.4 0.1-0.2 0.3-0.3 0.2-0.1 0.4-0.1 0.2 0 0.3 0 0.1 0.1 0.2 0.1 0.1 0.1 0.2 0.2 0.1 0.1 0.2 0.2c1.1 1.5 1.4 3.3 1.1 5 3.6 1.1 5.9 4.4 6.2 8.1 3.2 1.6 6.9 0.4 8.8-3 1.4-2.5 1.3-5.5 0.1-7.9q-1.1 0.7-2.2 1.1c-1.6 0.5-3.3 0.3-4.8-0.5-1.5-0.8-2.9-2.1-4.1-4q0 0 0 0 0 0 0-0.1-0.1 0-0.1 0 0 0 0 0-1 0.3-2 0.2-0.8 0-1.6-0.3-0.4-0.1-0.6-0.5-0.2-0.4 0-0.8 0.1-0.4 0.5-0.6 0.4-0.1 0.8 0 0.5 0.1 1 0.2c2.1 0.1 4.1-1.8 4.2-4.3q0-0.2 0.1-0.4 0-0.2 0.2-0.4 0.1-0.1 0.3-0.2 0.2 0 0.4 0 0.2 0 0.4 0.1 0.2 0 0.4 0.2 0.1 0.2 0.2 0.4 0 0.1 0 0.4c-0.1 2-1 3.8-2.5 5q0 0 0 0 0 0 0 0 0 0 0 0 0 0 0 0c1.1 1.6 2.2 2.7 3.3 3.3 1.1 0.6 2.2 0.7 3.2 0.3 2.3-0.8 4.3-2.5 5.6-5.1 2.5-5.2 0.7-11.6-4-14.3-2.2-1.3-4.6-1.5-6.8-0.9 0 0.8-0.2 1.6-0.6 2.3q-0.3 0.6-0.7 1.1c-0.2 0.2-0.4 0.3-0.7 0.4-0.3 0-0.5-0.1-0.8-0.3-0.2-0.1-0.3-0.4-0.3-0.7 0-0.3 0.1-0.5 0.2-0.7q0.3-0.3 0.5-0.7c0.8-1.6 0.2-3.6-1.2-4.4q-0.3-0.2-0.4-0.5-0.1-0.3 0-0.6 0-0.4 0.3-0.6 0.3-0.2 0.6-0.2 0.1 0 0.2 0 0 0 0.1 0 0.1 0 0.2 0.1 0 0 0.1 0c1.1 0.7 1.8 1.6 2.2 2.7q1.8-0.4 3.7-0.3 2 0.2 3.9 1.2 0-0.1 0-0.1 0.6-1.4 0.6-3.1c0-4-2.8-7.1-6.2-7.4q-0.1 0-0.1 0.1-0.6 0.9-1.3 1.6-0.2 0.2-0.5 0.5c-1.9 1.7-4.3 2.5-6.7 2.4-0.3 1.4-0.9 2.8-1.8 4q-0.7 0.8-1.5 1.4c0.6 1.4 0.8 2.9 0.7 4.4q-0.1 1.2-0.4 2.2c-0.1 0.3-0.3 0.5-0.5 0.6-0.3 0.1-0.6 0.2-0.8 0.1-0.3-0.1-0.5-0.3-0.6-0.5-0.2-0.3-0.2-0.6-0.1-0.8q0.3-0.9 0.3-1.8c0.4-3.8-2.2-7.1-5.6-7.5q-0.4 0-0.7-0.3-0.3-0.3-0.3-0.8 0.1-0.4 0.4-0.7 0.3-0.2 0.7-0.2 0 0 0 0 0 0 0 0 0.1 0 0.1 0 0 0 0 0c2.3 0.2 4.3 1.4 5.6 3.2q0.1 0.1 0.2 0.3 0.2-0.1 0.3-0.3 0.3-0.2 0.6-0.6c2.2-2.8 2-7.2-0.5-9.7-1.6 1.5-3.7 2.5-6 2.5z"/>
	</g>
	<g id="SvgjsG10991">
		<path id="BriefBot" class="s1" aria-label="BriefBot"  d="m93.9 75.1c0 1.9 0.6 2.9 3.3 2.9h9.5c4.7 0 10-0.8 10-6 0-2-1-3.5-3.1-4.1 2.9-1.4 4.7-4.6 4.7-9.9 0-7.4-5.7-10.1-11.8-10.1h-9.3c-2.7 0-3.3 0.9-3.3 2.9zm21.4-16.7c0 4.1-1.7 7.6-5.7 8.1v-15.6c4 0.6 5.7 3.5 5.7 7.5zm-5.7 10.9c3 0.1 4.1 1.6 4.1 3 0 1.4-1.2 2.7-4.1 2.8zm11.9 5.8c0 1.9 0.6 2.9 3.3 2.9h8.8c3 0 3.4-1 3.4-3v-10.6l6.9-5.4c0.4-0.3 0.6-0.6 0.6-0.9 0-0.3-0.1-0.5-0.3-0.7l-0.9-1c-0.2-0.1-0.5-0.3-0.8-0.3-0.2 0-0.5 0.2-0.8 0.5l-4.7 4.5v-1.6c0-2-0.5-3-3-3h-9.2c-2.7 0-3.3 1-3.3 2.9zm23.3 0c0 2 0.6 3 3.3 3h9.2c2.6 0 3-1 3-2.9v-15.7c0-2-0.4-2.9-3-2.9h-9.2c-2.7 0-3.3 0.9-3.3 2.9zm0.8-27.6c0 3.8 3.2 7 7 7 3.9 0 7-3.2 7-7 0-3.9-3.1-7-7-7-3.8 0-7 3.1-7 7zm37.6 27c-1.6 0-3.6-1.2-4-5.4h8.6c0.6 0 0.9-0.3 0.9-0.8v-1.1c0-8.5-5.4-11.4-12.4-11.4-6.3 0-12.9 2.9-12.9 11.5 0 8.6 6.6 11.4 12.9 11.4 5.4 0 9-1.8 10.8-3.1 0.1-0.1 0.2-0.2 0.2-0.3 0-0.1 0-0.2-0.1-0.3l-0.7-1.2c-0.2-0.2-0.2-0.3-0.5-0.3-0.3 0-1.3 1-2.8 1zm-4.1-7.9c0.1-5.1 2-5.8 3.3-5.8 1.8 0 3.3 1.3 3.3 5.8zm33.2 2.7c0.3 0 0.5-0.2 0.5-0.5v-1.7c0-0.3-0.2-0.4-0.5-0.4h-4.2v-13c0-5 1.5-6.3 3.4-6.3 0.8 0 1.2 0.2 1.6 0.2 0.1 0 0.2 0 0.2-0.3v-1.5c0-0.6-0.3-0.8-0.5-0.9-1.9-0.9-5.8-1.7-8.8-1.7-5.4 0-11.4 1.7-11.4 10.8v12.7h-1.7c-0.3 0-0.5 0.1-0.5 0.4v1.7c0 0.3 0.2 0.5 0.5 0.5h1.7v5.8c0 1.9 0.6 2.9 3.3 2.9h9.1c2.7 0 3.1-0.9 3.1-2.9v-5.8zm2.9 5.8c0 1.9 0.6 2.9 3.3 2.9h9.6c4.6 0 9.9-0.8 9.9-6 0-2-1-3.5-3.1-4.1 2.9-1.4 4.7-4.6 4.7-9.8 0-7.5-5.6-10.2-11.8-10.2h-9.3c-2.7 0-3.3 1-3.3 2.9zm21.5-16.7c0 4.1-1.8 7.6-5.8 8.1v-15.6c4 0.6 5.8 3.5 5.8 7.5zm-5.8 10.9c3 0.2 4.1 1.6 4.1 3 0 1.5-1.2 2.7-4.1 2.8zm24.1 9.4c5.9 0 12.9-1.8 12.9-11.6 0-9.5-7.1-11.3-12.9-11.3-6.3 0-13 2.9-13 11.5 0 8.7 6.7 11.4 13 11.4zm6.4-5c-1.8 0-3.5-0.8-3.5-6.4 0-5.7 2.2-6.5 3.5-6.5 1.7 0 3.6 1.3 3.6 6.3 0 5.3-1.8 6.6-3.6 6.6zm10.3-10.3v8.3c0 6.4 4 7 9.3 7 3.7 0 7.5-0.9 9.6-1.8 0.2 0 0.5-0.2 0.5-0.7v-1.7c0-0.1-0.1-0.2-0.3-0.2-0.3 0-1 0.3-1.6 0.3-1.4 0-2.1-0.8-2.1-2.7v-8.5h3.8c0.3 0 0.5-0.1 0.5-0.5v-1.7c0-0.2-0.2-0.4-0.5-0.4h-3.8v-9.6c0-0.9-0.6-1.1-1-1.1-0.5 0-1.2 0.2-2.2 0.6l-11.6 4.2c-0.6 0.2-0.6 0.7-0.6 1.1v4.8h-2.2c-0.3 0-0.5 0.2-0.5 0.4v1.7c0 0.4 0.2 0.5 0.5 0.5z"/>
	</g>
</svg>